<svg id="Layer_1" data-name="Layer 1" xmlns="http://www.w3.org/2000/svg" xmlns:xlink="http://www.w3.org/1999/xlink" viewBox="0 0 1069.93 630.13">
  <defs>
    <clipPath id="clip-path">
      <rect x="-148.27" y="501.24" width="758.04" height="232.55" transform="translate(-95.81 44.87) rotate(-9.21)" fill="none"/>
    </clipPath>
  </defs>
  <g>
    <rect x="-11.83" y="-11.64" width="1084.57" height="648.71" fill="#e16070"/>
    <rect x="-4.17" y="-208.02" width="1829" height="1081" fill="none"/>
    <path d="M811.29,359.37a6.5,6.5,0,0,0-2.88-4.35,6.53,6.53,0,0,0-5.14-.85,25,25,0,0,1-12.13.95c-5.1-.63-10.5-1.08-15.78-1.6q-13.15-1.35-26.49-2.27c-9.65-.68-19.37-1.14-29.06-1.75-9.09-.57-18.34-1.33-27.29-1.72q-28.9-1.27-57.8-1.84c-16.07-.46-71.92-.78-88-.47-11.26.06-22.51.64-33.77.85-14.93.08-69.67,1.63-84.33,2.59-15.91.93-31.86,1.61-47.66,2.76-14.66,1.07-29.33,1.81-44,3a62.45,62.45,0,0,0-9.93,1.08c-8.62.05-16.28.9-24,1.34-6.08.37-12.35.55-18.33,1.5,0,0,0,.36,0,.51s0-.37,0-.51c-2.53,0-3.67-1.45-7.59-.91s-7.62,1.73-7.76,4c-2,.45,0,1.51-2.26,1.92v1.76c1.58.73,2.06,1.49,0,2.46v.7c1.24-.52,1.43,0,2.09.24v1.43c-1.46.71-.58,1.36-.32,2s1.84,1.61,1.55,2.6a4.82,4.82,0,0,0,1.86,4.46c0,.3,0,.55,0,.85.41,2.56,3.87,4.67,4.36,7.31.38,2,3.69,3.64,8.49,3.21,4.11-.28,5.53-2,9.19-2.61.7,0,3-.35,3.67-.39,15.54-1.11,31-2.34,46.48-3.93,4.54-.46,9.49-.38,13.63-1.17,5.5-1.1,11.29-1.13,16.86-1.93a250.94,250.94,0,0,1,31.71-2c8.84-.05,17.53-1.05,26.29-1.46,4.91-.25,9.75.16,14.66-.38a29.7,29.7,0,0,1,5.87-.62c5.24.3,50.2-.72,55.48-.71,10.23-.06,20.5-.63,30.73-.79,12.13-.29,63.8-1,76-.42,4.14,0,8.47.72,12.36.48,11.44-.69,22.74.24,34.11.43,9.94.17,19.81,1,29.78,1.27s19.19.74,28.65,1.71c3.85.38,7.67.87,11.56,1.22,3.08.28,5.17-.8,8.1-.45,7.34.95,15.12,1.61,22.82,2.11a101.32,101.32,0,0,1,11.93,1,130.64,130.64,0,0,0,17.39,2.33l3.68,1.3a14.66,14.66,0,0,0,10.13,1,5.4,5.4,0,0,0,2.2-5.84V380c.36-.55.69-1.14.32-1.76,1-.37,1.06-.81.76-1.36.9-2.1,2.58-4.09,1.58-6.39-.41-.92-1.45-2.27,1.52-2.91v-1.76c-1.43-.17-1.58-.69-1.88-1.16A45.39,45.39,0,0,0,811.29,359.37Zm-269.87,6.12a2.73,2.73,0,0,0-.7,0A2.73,2.73,0,0,1,541.42,365.49Z" fill="#fff" fill-rule="evenodd" opacity="0.5" style="isolation: isolate"/>
    <path d="M793.39,284.62c.05,9.69,3.74,14.65,11.08,14.61l8.18,0,.1,19-8.32.05c-20.06.11-31.13-11.86-31.25-33.68L773,259.32l-27.72.16.32,59.07-19.91.11-.33-59-11.33.07-.31-16.39,11.55-.07v-2.46c-.12-21.81,10.85-33.9,30.87-34l8.33,0,.1,19.14-8.32.05c-7.34,0-11,4.86-10.92,14.73v2.45l27.87-.15-.08-14.3L793,215.9l.14,26.92,14.67-.08.09,16.39-14.66.08ZM525,243.61a30.73,30.73,0,0,1,10.9,7.64l0-8.14,19.91-.11.42,76.35-19.91.11,0-8.07a30.84,30.84,0,0,1-23.89,10.22c-20.54.11-36.77-17.44-36.9-40s15.88-40.24,36.45-40.35A30.59,30.59,0,0,1,525,243.61Zm-9.74,60.6c12.32-.07,20.88-9.47,20.81-22.89-.07-13.2-9-22.73-21.07-22.66s-20.7,9.69-20.63,22.89S502.91,304.27,515.23,304.21Zm67.21-54,0-7.33-18.89.1.43,76.35,19.76-.11-.19-34.32c-.09-16.36,2.83-25.25,18.42-25.33l5.13,0-.1-19.14h-.52C600.06,240.4,588.59,241.75,582.44,250.18Zm30.24-42,19.84-.11.62,110.89L613.3,319ZM315.5,229.88a32.66,32.66,0,0,1,28.44,16.64l.26.47.44-.29,17.69-11.36.43-.3-.29-.43a56.66,56.66,0,0,0-99.26,53.48A56.21,56.21,0,0,0,316,322.58a55.5,55.5,0,0,0,46.47-24.68l.29-.44-18.59-12.11-.29.44a32.71,32.71,0,0,1-28.14,16.66c-19.15.11-34.23-15.84-34.35-36.26C281.46,248.62,294.09,230,315.5,229.88ZM369,209.49l19.84-.11.61,110.89-19.84.11ZM677,240c-22.59.12-38.3,16.86-38.17,40.55s16.43,40.24,39.61,40.12a45.7,45.7,0,0,0,31.37-11l1.05-.92-9.9-13.66-1.28,1a34,34,0,0,1-20.38,7.45A19.23,19.23,0,0,1,659,287.93l54.31-.3v-1.39c0-.95.07-1.93.14-2.94h0c.08-1.06.16-2.13.16-3.22C713.54,256.43,698.41,239.9,677,240Zm-.2,17.42c8.88-.05,14.92,5.3,17,15.05l-34.69.19C661.14,262.91,667.41,257.49,676.76,257.44ZM395.22,281.91c-.13-23.69,15.58-40.42,38.17-40.55,21.53-.12,36.55,16.41,36.75,40.07,0,1.08-.07,2.16-.15,3.22s-.15,2-.15,2.94V289l-54.31.3a19.27,19.27,0,0,0,20.22,15.66,34,34,0,0,0,20.39-7.45l1.28-1,9.94,14-1.06.93A45.68,45.68,0,0,1,434.83,322C411.65,322.16,395.35,305.6,395.22,281.91ZM433,258.79c-9.16,0-15.44,5.47-17.51,15.27l34.54-.22C447.93,264.09,442.18,258.73,433,258.79Z" fill="#fff" fill-rule="evenodd"/>
    <path d="M465.63,430.84h6.44v-2.51h-6.44v-4.18h7v-2.53H463v16.1h9.78v-2.53h-7.13ZM487.44,438a6.27,6.27,0,0,0,4.11-1.27,4.23,4.23,0,0,0,1.59-3.47,3.82,3.82,0,0,0-1.66-3.31,4.34,4.34,0,0,0-1.17-.65c-.5-.2-.9-.36-1.19-.46s-.72-.25-1.34-.46c-2.46-.76-3.24-1.31-3.24-2.5s1-2,2.53-2a3.45,3.45,0,0,1,3.38,2.25l2.23-1.29a6,6,0,0,0-5.61-3.54,5.48,5.48,0,0,0-3.66,1.26,4.16,4.16,0,0,0-1.52,3.39,3.71,3.71,0,0,0,1.57,3.24,11,11,0,0,0,3.38,1.47,12.38,12.38,0,0,1,2.85,1.15,1.68,1.68,0,0,1,.81,1.5c0,1.26-1,2.11-3,2.11a3.86,3.86,0,0,1-4-2.71l-2.27,1.33C482.08,436.52,484.33,438,487.44,438Zm13-16.4v2.53H505v13.57h2.65V424.15h4.53v-2.53Zm19.63,12.92a1.72,1.72,0,0,0-1.73,1.73,1.73,1.73,0,1,0,1.73-1.73Zm33.78,3.18v-2.55h-6.67l3.64-3.64c1.81-1.86,2.73-3.61,2.73-5.24a4.61,4.61,0,0,0-1.51-3.64,5.34,5.34,0,0,0-3.64-1.33,5.58,5.58,0,0,0-5.2,3.27l2.24,1.31a3.13,3.13,0,0,1,3-2,2.33,2.33,0,0,1,2.48,2.48c0,1-.69,2.18-2.05,3.54l-5.61,5.73v2.07Zm19.43-2a11.81,11.81,0,0,0,0-12.14,5.42,5.42,0,0,0-4.65-2.28A5.48,5.48,0,0,0,564,423.6a12,12,0,0,0,0,12.14,5.48,5.48,0,0,0,4.67,2.28A5.42,5.42,0,0,0,573.31,435.74Zm-4.65-.3c-2.37,0-3.68-2.07-3.68-5.77s1.31-5.77,3.68-5.77,3.68,2.07,3.68,5.77S571.05,435.44,568.66,435.44Zm26,.3a11.87,11.87,0,0,0,0-12.14,5.42,5.42,0,0,0-4.65-2.28,5.48,5.48,0,0,0-4.67,2.28,11.93,11.93,0,0,0,0,12.14,5.48,5.48,0,0,0,4.67,2.28A5.42,5.42,0,0,0,594.7,435.74Zm-4.65-.3c-2.37,0-3.68-2.07-3.68-5.77s1.31-5.77,3.68-5.77,3.68,2.07,3.68,5.77S592.44,435.44,590.05,435.44Zm18.33-7.75.28-3.59h6.53v-2.48h-9l-.62,8.65h4.69c1.77,0,2.94,1,2.94,2.57s-1.17,2.6-3,2.6a3,3,0,0,1-3.19-2.18l-2.28,1.31a5.49,5.49,0,0,0,5.47,3.45,6,6,0,0,0,4-1.38,4.74,4.74,0,0,0,1.63-3.8,4.68,4.68,0,0,0-1.59-3.77,5.7,5.7,0,0,0-3.89-1.38Z" fill="#fff"/>
    <g opacity="0.26">
      <path d="M795.26,163.3l-.67-1.92,4.64-10.75c1.29-3,1.71-5.43,1-6.94a4.26,4.26,0,0,0-6-2.58,6,6,0,0,0-3.72,4.85l-2.23-.4a7.2,7.2,0,0,1,5.1-6.58,6.39,6.39,0,0,1,5.16,0,6.3,6.3,0,0,1,3.81,3.84c1,2.57.38,5.2-1.17,8.78l-3.83,8.56,10.68-4.05.84,2.14Z" fill="#fff"/>
      <path d="M821.51,153.36a7.48,7.48,0,0,1-7.18-.61,15.21,15.21,0,0,1-5.36-7.28c-1.36-3.42-1.73-6.34-1.09-9a7.38,7.38,0,0,1,4.79-5.38,7.48,7.48,0,0,1,7.18.62,15.15,15.15,0,0,1,5.37,7.27c1.36,3.42,1.73,6.35,1.09,9A7.35,7.35,0,0,1,821.51,153.36Zm-.64-2.12a5,5,0,0,0,3.44-4,12.91,12.91,0,0,0-1-7.32c-1.2-2.79-2.46-5-4.24-5.94a5.5,5.5,0,0,0-5.31-.66,5,5,0,0,0-3.45,4,12.9,12.9,0,0,0,1,7.32c1.21,2.79,2.47,5,4.23,6.14A5.49,5.49,0,0,0,820.87,151.24Z" fill="#fff"/>
      <path d="M842.67,145.05a7.48,7.48,0,0,1-7.18-.61,15.21,15.21,0,0,1-5.36-7.28c-1.36-3.42-1.73-6.34-1.09-9a7.36,7.36,0,0,1,4.79-5.38,7.48,7.48,0,0,1,7.18.62,15.15,15.15,0,0,1,5.37,7.27c1.36,3.42,1.73,6.35,1.09,9A7.35,7.35,0,0,1,842.67,145.05Zm-.66-1.91a5,5,0,0,0,3.44-4,12.86,12.86,0,0,0-1-7.31c-1.21-2.79-2.47-5-4.25-5.94a5.48,5.48,0,0,0-5.31-.67,5,5,0,0,0-3.44,4,12.86,12.86,0,0,0,1,7.31c1.21,2.79,2.47,5,4.23,6.15A6.11,6.11,0,0,0,842,143.14Z" fill="#fff"/>
      <path d="M857.26,124.2a7.12,7.12,0,0,1,5.8-.12,7.12,7.12,0,0,1,3.7,9.81,8,8,0,0,1-4.45,3.75c-3.2,1.18-6.67.67-8.73-1.78l1.39-1.74a5.24,5.24,0,0,0,6.47,1.59c3-1.19,4.43-3.54,3.24-6.54-1.2-2.79-3.82-3.63-6.81-2.44l-5.76,2.19-3.4-11,11.55-4.59.87,1.94L851.51,119l2.11,6.79Z" fill="#fff"/>
      <path d="M951.27,36.48a163.19,163.19,0,1,0-19.68,229.94A163.18,163.18,0,0,0,951.27,36.48Z" fill="none" stroke="#fff" stroke-miterlimit="10" stroke-width="1.5"/>
      <path d="M842.94-6.9a149.41,149.41,0,1,0,132,165A149.41,149.41,0,0,0,842.94-6.9Z" fill="none" stroke="#fff" stroke-miterlimit="10" stroke-width="1.5"/>
      <path d="M758.15,225.18a1.32,1.32,0,0,1-1.37,1.54c-.84.13-1.62-.35-1.55-1.17A1.32,1.32,0,0,1,756.6,224C757.23,223.87,758,224.55,758.15,225.18Z" fill="#fff"/>
      <path d="M738.13,198.48a4.14,4.14,0,0,1,3.8-.91,4.39,4.39,0,0,1,3.34,1.93l4.81,6.61-15,11.11-4.45-6a5.76,5.76,0,0,1-.91-3.79,4.68,4.68,0,0,1,1.94-3.35,4.56,4.56,0,0,1,4.6-.64A4.65,4.65,0,0,1,738.13,198.48Zm-2.63,16.3,5.29-3.89-3.33-4.62a2.94,2.94,0,0,0-2.16-1.22,3.12,3.12,0,0,0-2.33.63,3.3,3.3,0,0,0-1.22,2.17,3.09,3.09,0,0,0,.63,2.32Zm8.44-14.15a3.32,3.32,0,0,0-2.17-1.22,3.28,3.28,0,0,0-2.53.61,4.94,4.94,0,0,0-1.43,2.15,4,4,0,0,0,.61,2.53l3.7,5.07,5.51-4.07Z" fill="#fff"/>
      <path d="M734.33,180.19l-4.75,7.23,2.28,4.74,6.69-3.35.88,1.73-16.82,8.26-3.35-6.69a5.2,5.2,0,0,1-.25-4.35,6.2,6.2,0,0,1,2.76-3.28,6.71,6.71,0,0,1,3.56-.52,5.41,5.41,0,0,1,2.95,1.7l5-7.43Zm-11.1,16.19,6.9-3.34-2.47-5a3.65,3.65,0,0,0-2.11-1.83,4.55,4.55,0,0,0-2.91.16,5.1,5.1,0,0,0-2,2.1,3.5,3.5,0,0,0,.17,2.91Z" fill="#fff"/>
      <path d="M714,179.06l-.68-1.71,17.84-5.7.68,1.71Z" fill="#fff"/>
      <path d="M717.61,148.6l1-.12a7.86,7.86,0,0,1,6.27,1.57,9.59,9.59,0,0,1,3.38,6.28,10.06,10.06,0,0,1-1.65,7.29,9.68,9.68,0,0,1-6.32,3.8,10.16,10.16,0,0,1-7.29-1.66,9.52,9.52,0,0,1-3.78-6.51,8.17,8.17,0,0,1,.62-4.91,8.58,8.58,0,0,1,2.82-3.89l1.1,1.54a7.1,7.1,0,0,0-2.66,7,7.38,7.38,0,0,0,3.06,5.22,7.48,7.48,0,0,0,5.88,1.33,8.52,8.52,0,0,0,5.22-3.06,7.16,7.16,0,0,0,1.34-6.08,7.65,7.65,0,0,0-2.27-4.74A5.93,5.93,0,0,0,720,150l1,7.32-1.68.27Z" fill="#fff"/>
      <path d="M708.58,128.62l.16-1.85,18.7,1.19-.16,1.84-8.63-.53L718,139.34l8.63.53-.15,1.84-18.7-1.18.16-1.85,8.22.5.65-10.07Z" fill="#fff"/>
      <path d="M713.47,105.28l1.63.35-1.32,5.67,16.37,4.29-.57,1.81-16.36-4.29-1.52,5.65-1.62-.34Z" fill="#fff"/>
      <path d="M736.76,98.6a9.8,9.8,0,0,1-13,4.47,9.45,9.45,0,0,1-4.89-5.58A9.71,9.71,0,0,1,732.3,85.62a9.42,9.42,0,0,1,4.89,5.58A8.5,8.5,0,0,1,736.76,98.6Zm-1.58-.75a6.76,6.76,0,0,0,.3-6,8.11,8.11,0,0,0-4.16-4.48,6.75,6.75,0,0,0-6-.31,7.14,7.14,0,0,0-4.47,4,7.49,7.49,0,0,0-.31,6,7.77,7.77,0,0,0,4,4.47,6.71,6.71,0,0,0,6,.3A6.92,6.92,0,0,0,735.18,97.85Z" fill="#fff"/>
      <path d="M736.62,64.1l1.17-1.56,14.7,11.59-.94,1.37-18.49-1.17,12,9.49-1.16,1.55L729.18,73.79l.94-1.37,18.49,1.17Z" fill="#fff"/>
      <path d="M755.55,60.14a1.44,1.44,0,1,1,1.56-1.31A1.56,1.56,0,0,1,755.55,60.14Z" fill="#fff"/>
      <path d="M776.6,53.06l8-4.27.9,1.52-9.73,5.16-8.7-16.65,9.51-5,.91,1.52-8,4.07,3,5.84,7.36-3.92.9,1.52-7.36,3.92Z" fill="#fff"/>
      <path d="M803,44.37l-2.12.64-7.34-6-2.43,9.08-2.12.65,3-11.1-8.3-6.91,1.92-.66,6.76,5.53,2.17-8.49,1.91-.66-2.74,10.3Z" fill="#fff"/>
      <path d="M812.13,24.09a5.89,5.89,0,0,1,4.44,1.2,5.28,5.28,0,0,1,2.14,3.9,5.9,5.9,0,0,1-1.2,4.45,5.28,5.28,0,0,1-3.9,2.14l-4.81.62.86,6.89-1.88.25L805.44,25Zm1.43,9.83a3.61,3.61,0,0,0,2.6-1.43,3.25,3.25,0,0,0,.67-3,4,4,0,0,0-1.41-2.81,3.89,3.89,0,0,0-3-.88l-4.81.62,1,8.14Z" fill="#fff"/>
      <path d="M837.62,42.38l-3.88-7.77-5.14-.23-.43,7.4-1.85-.16,1-18.71,7.4.42a5.17,5.17,0,0,1,3.77,1.77A6.36,6.36,0,0,1,840,29.16a5.41,5.41,0,0,1-1.32,3.4,5,5,0,0,1-3,1.8l4.07,8Zm-8.83-17.49-.45,7.61,5.56.27a3.66,3.66,0,0,0,2.77-1,4.35,4.35,0,0,0,1.25-2.57,3.29,3.29,0,0,0-1-2.77,3.42,3.42,0,0,0-2.58-1.26Z" fill="#fff"/>
      <path d="M846.93,42.14l8.92,2-.34,1.62L844.78,43.2,849,25l10.53,2.56-.35,1.62-8.71-2-1.59,6.48,8.1,1.93-.35,1.62-8.09-1.93Z" fill="#fff"/>
      <path d="M861.49,43.39l1.88-.25a5,5,0,0,0,3.46,5.46c2.6,1,4.49.59,5.49-1.39a2.2,2.2,0,0,0-.2-2.5,20.17,20.17,0,0,0-2.64-2.91,15.29,15.29,0,0,1-2.85-2.93,3.85,3.85,0,0,1-.47-4.17,5,5,0,0,1,2.93-2.85,5.28,5.28,0,0,1,4.31.37,6.6,6.6,0,0,1,4,6.13l-1.88.25A4.43,4.43,0,0,0,872.62,34c-2.18-1-4.1-.36-4.87,1.44a2.8,2.8,0,0,0,0,2.27A9.21,9.21,0,0,0,870,40.2l1.14,1.13c.19.22.58.46,1,.9s.76.69.93,1.12a6.65,6.65,0,0,1,1.06,2.15A3.55,3.55,0,0,1,873.7,48a4.77,4.77,0,0,1-3.13,2.83,7.48,7.48,0,0,1-4.72-.41A6.79,6.79,0,0,1,861.49,43.39Z" fill="#fff"/>
      <path d="M877.8,50.78l1.84.15a5,5,0,0,0,2.59,6c2.35,1.44,4.44,1.2,5.6-.35a3.46,3.46,0,0,0,.42-2.44,13.13,13.13,0,0,0-2.2-3.29,14.13,14.13,0,0,1-2.38-3.51,4.59,4.59,0,0,1,.16-4.32,4.39,4.39,0,0,1,3.49-2.18,8,8,0,0,1,4.25,1,6.76,6.76,0,0,1,2.95,6.66l-1.85-.16a4.56,4.56,0,0,0-2.24-5.15c-2-1.2-3.83-1.15-5,.61A3,3,0,0,0,885,46a15.46,15.46,0,0,0,1.82,2.84l.94,1.12a4.47,4.47,0,0,1,.73,1.09c.38.45.55.88.73,1.1a5.06,5.06,0,0,1,.63,2.32,4,4,0,0,1-.82,2.41,4.4,4.4,0,0,1-3.5,2.18,8,8,0,0,1-4.64-1.22A5.68,5.68,0,0,1,877.8,50.78Z" fill="#fff"/>
      <path d="M901.47,63.75A1.46,1.46,0,1,1,903,65.12,1.32,1.32,0,0,1,901.47,63.75Z" fill="#fff"/>
      <path d="M932.62,88.31l-16.1,9.57-.9-1.53,13.71-8.12-12.81-.06-.18-.22,6.12-11.25-13.7,8.12-.91-1.52L924,73.73l1.07,2-5.66,10.67h12.18Z" fill="#fff"/>
      <path d="M923,115.79l3.79-3.19L924,104.1l-4.94-.22-.66-1.91,20,.88.66,1.91-15.54,12.72Zm2.83-11.33,2.48,7.24,8.42-6.72Z" fill="#fff"/>
      <path d="M942.77,119.33l.26,1.88-18.47,3.38-.25-1.88Z" fill="#fff"/>
      <path d="M927.55,133.11l.51,8.51-1.66.06-.56-10.37,18.69-1.09,0,1.87Z" fill="#fff"/>
      <path d="M933.83,153.89a1.45,1.45,0,1,1-.18,2.05A1.37,1.37,0,0,1,933.83,153.89Z" fill="#fff"/>
      <path d="M887.68,90A80,80,0,1,0,878,202.83,80,80,0,0,0,887.68,90Z" fill="none" stroke="#fff" stroke-miterlimit="10" stroke-width="1.5"/>
    </g>
    <g opacity="0.42">
      <g clip-path="url(#clip-path)">
        <g opacity="0.5">
          <path d="M-161.66,565.4C-86.83,553.27-78.61,604-3.78,591.88s66.61-62.86,141.43-75,83,38.61,157.88,26.48,66.61-62.86,141.44-75,83,38.6,157.87,26.47" fill="none" stroke="#fff" stroke-miterlimit="10" stroke-width="1.5"/>
          <path d="M-152.2,623.74c74.82-12.13,83,38.6,157.87,26.48s66.61-62.86,141.44-75,83,38.61,157.88,26.48,66.6-62.86,141.43-75,83.05,38.6,157.88,26.47" fill="none" stroke="#fff" stroke-miterlimit="10" stroke-width="1.5"/>
          <path d="M-142.75,682.08C-67.92,670-59.7,720.68,15.13,708.55s66.61-62.85,141.43-75,83.05,38.61,157.88,26.48,66.61-62.86,141.44-75,83,38.6,157.87,26.47" fill="none" stroke="#fff" stroke-miterlimit="10" stroke-width="1.5"/>
        </g>
      </g>
    </g>
  </g>
</svg>
